# Blender v2.78 (sub 0) OBJ File: 'parts.blend'
# www.blender.org
mtllib window01.mtl
o Window01_Plane
v -0.500000 -0.516141 0.016141
v 0.500000 -0.516141 0.016141
v -0.500000 0.483859 0.016141
v 0.500000 0.483859 0.016141
v -0.392045 0.279303 0.016141
v -0.392045 -0.311585 0.016141
v 0.392045 -0.311585 0.016141
v 0.392045 0.279303 0.016141
v -0.392045 0.279303 -0.032282
v -0.392045 -0.311585 -0.032282
v 0.392045 -0.311585 -0.032282
v 0.392045 0.279303 -0.032282
v 0.500000 -0.335612 0.016141
v -0.404725 -0.335612 0.016141
v -0.500000 -0.335612 0.016141
v 0.404725 -0.335612 0.016141
v -0.404725 0.303330 0.016141
v -0.404725 0.483859 0.016141
v 0.404725 0.303330 0.016141
v 0.404725 0.483859 0.016141
v -0.404725 -0.311585 0.016141
v -0.500000 -0.311584 0.016141
v 0.500000 -0.311585 0.016141
v 0.404725 -0.311585 0.016141
v -0.392045 -0.311585 0.027005
v 0.392045 -0.311585 0.027005
v -0.404725 -0.335612 0.027005
v 0.404725 -0.335612 0.027005
v -0.404725 -0.311585 0.027005
v 0.404725 -0.311585 0.027005
v -0.211078 -0.313726 -0.004280
v -0.211078 0.284117 -0.004280
v -0.211078 -0.313726 -0.032570
v -0.211078 0.284117 -0.032570
v -0.188922 -0.313726 -0.004280
v -0.188922 0.284117 -0.004280
v -0.188922 -0.313726 -0.032570
v -0.188922 0.284117 -0.032570
v 0.188922 -0.313726 -0.004280
v 0.188922 0.284117 -0.004280
v 0.188922 -0.313726 -0.032570
v 0.188922 0.284117 -0.032570
v 0.211078 -0.313726 -0.004280
v 0.211078 0.284117 -0.004280
v 0.211078 -0.313726 -0.032570
v 0.211078 0.284117 -0.032570
v -0.395402 -0.003727 -0.011655
v 0.395402 -0.003727 -0.011655
v -0.395402 -0.003727 -0.039945
v 0.395402 -0.003727 -0.039945
v -0.395402 -0.025882 -0.011655
v 0.395402 -0.025882 -0.011655
v -0.395402 -0.025882 -0.039945
v 0.395402 -0.025882 -0.039945
v -0.395402 0.146273 -0.011655
v 0.395402 0.146273 -0.011655
v -0.395402 0.146273 -0.039945
v 0.395402 0.146273 -0.039945
v -0.395402 0.124118 -0.011655
v 0.395402 0.124118 -0.011655
v -0.395402 0.124118 -0.039945
v 0.395402 0.124118 -0.039945
v -0.395402 -0.153727 -0.011655
v 0.395402 -0.153727 -0.011655
v -0.395402 -0.153727 -0.039945
v 0.395402 -0.153727 -0.039945
v -0.395402 -0.175882 -0.011655
v 0.395402 -0.175882 -0.011655
v -0.395402 -0.175882 -0.039945
v 0.395402 -0.175882 -0.039945
vt 0.7267 0.4907
vt 0.7267 0.8605
vt 0.6963 0.8605
vt 0.6963 0.4907
vt 0.5607 0.4978
vt 0.5607 0.1280
vt 0.5687 0.1130
vt 0.5687 0.4978
vt 0.9919 0.9973
vt 0.9919 0.4907
vt 0.9987 0.4907
vt 0.9987 0.9973
vt 0.0679 0.1280
vt 0.0679 0.4978
vt 0.0599 0.4978
vt 0.0599 0.1130
vt 0.0599 0.0000
vt 0.5687 0.0000
vt 0.6286 0.4907
vt 0.6286 0.0000
vt 1.0000 0.0000
vt 1.0000 0.4907
vt 0.7267 0.8605
vt 0.7267 0.4907
vt 0.7572 0.4907
vt 0.7572 0.8605
vt 0.6963 0.4907
vt 0.6963 0.9814
vt 0.6658 0.9814
vt 0.6658 0.4907
vt 0.6354 0.9894
vt 0.6354 0.4987
vt 0.6658 0.4987
vt 0.6658 0.9894
vt 0.8639 0.9894
vt 0.8639 0.4987
vt 0.8790 0.4907
vt 0.8790 0.9973
vt 0.0599 0.5129
vt 0.5687 0.5129
vt 0.6286 0.6258
vt 0.0000 0.6258
vt 0.0000 0.5129
vt 0.6286 0.5129
vt 0.6286 0.0000
vt 0.6286 0.4978
vt 0.0000 0.4978
vt 0.0000 0.0000
vt 0.6354 0.4907
vt 0.6286 0.4987
vt 0.6286 0.4907
vt 0.6286 0.9894
vt 0.8639 0.4907
vt 0.8639 0.9973
vt 0.0347 0.6409
vt 0.0347 0.6258
vt 0.0415 0.6258
vt 0.0415 0.6409
vt 0.0347 0.6258
vt 0.0347 0.6409
vt 0.0279 0.6409
vt 0.0279 0.6258
vt 0.6354 0.9973
vt 0.6286 0.9973
vt 0.9385 0.8649
vt 0.9385 0.4907
vt 0.9563 0.4907
vt 0.9563 0.8649
vt 0.9741 0.4907
vt 0.9741 0.8649
vt 0.9563 0.8649
vt 0.9563 0.4907
vt 0.0000 1.0000
vt 0.0000 0.6258
vt 0.0139 0.6258
vt 0.0139 1.0000
vt 0.9207 0.8649
vt 0.9207 0.4907
vt 0.9385 0.4907
vt 0.9385 0.8649
vt 0.9919 0.4907
vt 0.9919 0.8649
vt 0.9741 0.8649
vt 0.9741 0.4907
vt 0.0139 1.0000
vt 0.0139 0.6258
vt 0.0279 0.6258
vt 0.0279 1.0000
vt 0.8461 0.4907
vt 0.8461 0.9856
vt 0.8283 0.9856
vt 0.8283 0.4907
vt 0.7749 0.9856
vt 0.7749 0.4907
vt 0.7927 0.4907
vt 0.7927 0.9856
vt 0.8929 0.4907
vt 0.8929 0.9856
vt 0.8790 0.9856
vt 0.8790 0.4907
vt 0.8639 0.4907
vt 0.8639 0.9856
vt 0.8461 0.9856
vt 0.8461 0.4907
vt 0.7572 0.9856
vt 0.7572 0.4907
vt 0.7749 0.4907
vt 0.7749 0.9856
vt 0.9068 0.9856
vt 0.9068 0.4907
vt 0.9207 0.4907
vt 0.9207 0.9856
vt 0.8283 0.4907
vt 0.8283 0.9856
vt 0.8105 0.9856
vt 0.8105 0.4907
vt 0.7927 0.9856
vt 0.7927 0.4907
vt 0.8105 0.4907
vt 0.8105 0.9856
vt 0.9068 0.4907
vt 0.9068 0.9856
vt 0.8929 0.9856
vt 0.8929 0.4907
vn -1.0000 -0.0000 0.0000
vn 0.0000 -0.0000 1.0000
vn -0.0000 -1.0000 0.0000
vn 1.0000 -0.0000 0.0000
vn 0.0000 1.0000 0.0000
usemtl Window01
s off
f 7/1/1 8/2/1 12/3/1 11/4/1
f 6/5/2 5/6/2 17/7/2 21/8/2
f 14/9/3 16/10/3 28/11/3 27/12/3
f 8/13/2 7/14/2 24/15/2 19/16/2
f 5/6/2 8/13/2 19/16/2 20/17/2 18/18/2 17/7/2
f 10/19/2 11/20/2 12/21/2 9/22/2
f 5/23/4 6/24/4 10/25/4 9/26/4
f 8/27/3 5/28/3 9/29/3 12/30/3
f 6/31/5 7/32/5 11/33/5 10/34/5
f 26/35/2 25/36/2 27/37/2 28/38/2
f 16/39/2 14/40/2 1/41/2 2/42/2
f 13/43/2 16/39/2 2/42/2
f 14/40/2 15/44/2 1/41/2
f 17/7/2 18/18/2 3/45/2
f 14/40/2 21/8/2 22/46/2 15/44/2
f 19/16/2 24/15/2 23/47/2 4/48/2
f 20/17/2 19/16/2 4/48/2
f 22/46/2 21/8/2 17/7/2 3/45/2
f 24/49/5 7/32/5 26/50/5 30/51/5
f 7/32/5 6/31/5 25/52/5 26/50/5
f 23/47/2 24/15/2 16/39/2 13/43/2
f 29/53/2 27/37/2 25/36/2
f 30/54/2 26/35/2 28/38/2
f 21/55/1 14/56/1 27/57/1 29/58/1
f 16/59/4 24/60/4 30/61/4 28/62/4
f 6/31/5 21/63/5 29/64/5 25/52/5
f 31/65/1 32/66/1 34/67/1 33/68/1
f 37/69/4 38/70/4 36/71/4 35/72/4
f 35/73/2 36/74/2 32/75/2 31/76/2
f 39/77/1 40/78/1 42/79/1 41/80/1
f 45/81/4 46/82/4 44/83/4 43/84/4
f 43/85/2 44/86/2 40/87/2 39/88/2
f 47/89/5 48/90/5 50/91/5 49/92/5
f 53/93/3 54/94/3 52/95/3 51/96/3
f 51/97/2 52/98/2 48/99/2 47/100/2
f 55/101/5 56/102/5 58/103/5 57/104/5
f 61/105/3 62/106/3 60/107/3 59/108/3
f 59/109/2 60/110/2 56/111/2 55/112/2
f 63/113/5 64/114/5 66/115/5 65/116/5
f 69/117/3 70/118/3 68/119/3 67/120/3
f 67/121/2 68/122/2 64/123/2 63/124/2
